<svg width="37" height="37" viewBox="0 0 37 37" fill="none" xmlns="http://www.w3.org/2000/svg">
<g clip-path="url(#clip0_8_11427)">
<path fill-rule="evenodd" clip-rule="evenodd" d="M3.06456 6.26992C1.58523 4.39568 2.59323 1.35923 3.36224 0.00878906C1.42735 0.819054 -1.47506 5.31234 0.90637 9.06902C2.81151 12.0744 7.10801 12.6784 9.01811 12.6047H12.511V28.8088H22.7809V12.6047H26.4279C28.338 12.6784 32.6345 12.0744 34.5397 9.06902C36.9211 5.31234 34.0187 0.819054 32.0838 0.00878906C32.8528 1.35923 33.8608 4.39568 32.3815 6.26992C30.521 8.62705 27.1721 9.06902 22.5581 9.06902H17.7252H17.7208H12.8879C8.27394 9.06902 4.92503 8.62705 3.06456 6.26992ZM19.2132 12.6047H17.7252H17.7208H16.0876V25.1258H19.2132V12.6047Z" fill="white"/>
<path d="M25.8357 20.5598V15.3299C29.1697 15.3299 32.5831 14.2005 33.873 13.6357L25.8357 20.5598Z" fill="white"/>
<path d="M9.23598 20.5598V15.3299C5.90198 15.3299 2.4886 14.2005 1.19866 13.6357L9.23598 20.5598Z" fill="white"/>
<path d="M21.1426 31.4648H14.4448L17.4179 34.957C17.6338 35.2106 18.0262 35.2084 18.2393 34.9524L21.1426 31.4648Z" fill="white"/>
</g>
<defs>
<clipPath id="clip0_8_11427">
<rect width="36.4239" height="36.4242" fill="white" transform="translate(0.00985718 0.00976562)"/>
</clipPath>
</defs>
</svg>
